<?xml version="1.0" standalone="no"?>
<!DOCTYPE svg PUBLIC "-//W3C//DTD SVG 1.1//EN" "http://www.w3.org/Graphics/SVG/1.1/DTD/svg11.dtd" >
<svg xmlns="http://www.w3.org/2000/svg">
<metadata>Generated by IcoMoon</metadata>
<defs>
<font id="de-icon" horiz-adv-x="1024">
<font-face units-per-em="1024" ascent="960" descent="-64" />
<missing-glyph horiz-adv-x="1024" />
<glyph unicode="&#x20;" horiz-adv-x="512" d="" />
<glyph unicode="&#xe900;" glyph-name="ic_adduser" d="M640 448c94.257 0 170.667 76.41 170.667 170.667s-76.41 170.667-170.667 170.667c-94.257 0-170.667-76.41-170.667-170.667v0c0-94.257 76.41-170.667 170.667-170.667v0zM256 533.333v128h-85.333v-128h-128v-85.333h128v-128h85.333v128h128v85.333zM640 362.667c-113.92 0-341.333-57.173-341.333-170.667v-85.333h682.667v85.333c0 113.493-227.413 170.667-341.333 170.667z" />
<glyph unicode="&#xe901;" glyph-name="ic_boxic_password" d="M512 234.667c47.128 0 85.333 38.205 85.333 85.333s-38.205 85.333-85.333 85.333c-47.128 0-85.333-38.205-85.333-85.333v0c0.145-47.070 38.264-85.188 85.319-85.333h0.014zM768 618.667h-42.667v85.333c0 117.821-95.513 213.333-213.333 213.333s-213.333-95.513-213.333-213.333v0h81.067c0 73.049 59.218 132.267 132.267 132.267s132.267-59.218 132.267-132.267v0-85.333h-388.267c-47.070-0.145-85.188-38.264-85.333-85.319v-426.681c0.145-47.070 38.264-85.188 85.319-85.333h512.014c47.070 0.145 85.188 38.264 85.333 85.319v426.681c-0.145 47.070-38.264 85.188-85.319 85.333h-0.014zM768 106.667h-512v426.667h512z" />
<glyph unicode="&#xe902;" glyph-name="ic_check" d="M939.811 740.137l-486.827-487.253-180.907 180.907 60.16 60.16 120.747-120.747 426.667 426.667zM845.518 525.097c5.411-22.756 8.513-48.882 8.513-75.733 0-188.395-152.725-341.12-341.12-341.12s-341.12 152.725-341.12 341.12c0 188.395 152.725 341.12 341.12 341.12 0.082 0 0.165 0 0.247 0h-0.013c0.116 0 0.253 0 0.391 0 67.667 0 130.689-19.887 183.541-54.134l-1.319 0.801 61.44 61.44c-67.758 48.303-152.236 77.227-243.47 77.227-0.205 0-0.411 0-0.616 0h0.032c-0.34 0.001-0.742 0.002-1.145 0.002-236.278 0-427.819-191.541-427.819-427.819s191.541-427.819 427.819-427.819c236.278 0 427.819 191.541 427.819 427.819 0 52.307-9.387 102.422-26.569 148.751l0.962-2.961z" />
<glyph unicode="&#xe903;" glyph-name="ic_close" d="M512 872.029c-234.185 0-424.029-189.844-424.029-424.029s189.844-424.029 424.029-424.029c234.185 0 424.029 189.844 424.029 424.029v0c0 0.108 0 0.236 0 0.364 0 233.984-189.682 423.666-423.666 423.666-0.128 0-0.255 0-0.383 0h0.019zM724.015 295.773l-59.788-59.788-152.226 152.227-152.227-152.227-59.788 59.788 152.227 152.227-152.227 152.227 59.788 59.788 152.227-152.227 152.226 152.227 59.788-59.788-152.227-152.227z" />
<glyph unicode="&#xe904;" glyph-name="ic_contact" d="M853.333 789.333h-682.667c-46.944-0.242-84.907-38.354-84.907-85.332 0 0 0-0.001 0-0.001v0l-0.427-512c0.145-47.070 38.264-85.188 85.319-85.333h682.681c47.070 0.145 85.188 38.264 85.333 85.319v512.014c-0.145 47.070-38.264 85.188-85.319 85.333h-0.014zM853.333 618.667l-341.333-213.333-341.333 213.333v85.333l341.333-213.333 341.333 213.333z" />
<glyph unicode="&#xe905;" glyph-name="ic_dashboard" d="M128 405.333h341.333v426.667h-341.333zM128 64h341.333v256h-341.333zM554.667 64h341.333v426.667h-341.333zM554.667 832v-256h341.333v256z" />
<glyph unicode="&#xe906;" glyph-name="ic_delete" d="M243.22 121.571c0-50.201 40.696-90.898 90.898-90.898h363.591c50.201 0 90.898 40.696 90.898 90.898v0 545.386h-545.386zM334.118 576.060h363.591v-454.489h-363.591zM674.984 803.304l-45.449 45.449h-227.244l-45.449-45.449h-159.071v-90.898h636.284v90.898z" />
<glyph unicode="&#xe907;" glyph-name="ic_documents" d="M341.333 277.333h341.333v-85.333h-341.333zM341.333 448h341.333v-85.333h-341.333zM597.333 874.667h-341.333c-47.070-0.145-85.188-38.264-85.333-85.319v-682.681c0 0 0-0.001 0-0.001 0-46.978 37.962-85.090 84.884-85.332h512.45c47.070 0.145 85.188 38.264 85.333 85.319v512.014zM768 106.667h-512v682.667h298.667v-213.333h213.333z" />
<glyph unicode="&#xe908;" glyph-name="ic_download" d="M768 320v-128h-512v128h-85.333v-128c0.145-47.070 38.264-85.188 85.319-85.333h512.014c47.070 0.145 85.188 38.264 85.333 85.319v128.014zM725.333 490.667l-60.16 60.16-110.507-110.080v348.587h-85.333v-348.587l-110.507 110.080-60.16-60.16 213.333-213.333z" />
<glyph unicode="&#xe909;" glyph-name="ic_edit" d="M158.694 241.881v-147.187h147.187l434.142 434.142-147.187 147.187zM853.828 642.641c7.091 7.077 11.478 16.862 11.478 27.671s-4.387 20.594-11.478 27.671l-91.845 91.846c-7.077 7.091-16.862 11.478-27.671 11.478s-20.594-4.387-27.67-11.478l-71.828-71.828 147.187-147.187z" />
<glyph unicode="&#xe90a;" glyph-name="ic_eraser" d="M773.242 778.498c-0.566 0.017-1.231 0.027-1.899 0.027-18.269 0-34.808-7.412-46.772-19.392l-528.811-528.811c-11.959-11.961-19.356-28.485-19.356-46.736s7.397-34.774 19.356-46.736v0c11.961-11.959 28.485-19.356 46.736-19.356s34.774 7.397 46.736 19.356l528.809 528.809c11.959 11.961 19.356 28.485 19.356 46.736s-7.397 34.774-19.356 46.736v0c-11.51 11.527-27.253 18.825-44.698 19.363l-0.101 0.002zM244.432 778.498c-0.566 0.017-1.231 0.027-1.899 0.027-18.269 0-34.808-7.412-46.772-19.392l-0.001-0.001c-11.959-11.961-19.356-28.485-19.356-46.736s7.397-34.774 19.356-46.736l528.809-528.809c11.961-11.959 28.485-19.356 46.736-19.356s34.774 7.397 46.736 19.356v0c11.959 11.961 19.356 28.485 19.356 46.736s-7.397 34.774-19.356 46.736l-528.809 528.809c-11.51 11.527-27.253 18.825-44.698 19.363l-0.101 0.002z" />
<glyph unicode="&#xe90b;" glyph-name="ic_eyes" d="M512 731.763c-159.333-0.296-295.538-98.997-351.102-238.554l-0.898-2.556c56.246-142.272 192.584-241.084 352-241.084s295.754 98.812 351.108 238.529l0.892 2.555c-56.463 142.113-192.668 240.813-351.963 241.109h-0.037zM512 329.929c-0.215-0.001-0.47-0.002-0.725-0.002-88.766 0-160.725 71.959-160.725 160.725s71.959 160.725 160.725 160.725c88.766 0 160.724-71.958 160.725-160.724v0c0-0.089 0-0.194 0-0.299 0-88.451-71.583-160.184-159.977-160.426h-0.023zM512 587.123c-0.127 0.001-0.277 0.001-0.427 0.001-53.255 0-96.427-43.172-96.427-96.427s43.172-96.427 96.427-96.427c53.255 0 96.426 43.171 96.427 96.426v0c0 0.089 0 0.194 0 0.299 0 53.037-42.971 96.037-95.996 96.085h-0.005z" />
<glyph unicode="&#xe90c;" glyph-name="ic_eyes_slash" d="M490.507 622.424c88.356-0.024 159.976-71.644 160-159.998v-0.002c-0.023-21.111-4.254-41.228-11.9-59.565l0.38 1.027 93.44-93.44c47.951 40.151 85.45 91.206 108.878 149.436l0.904 2.543c-56.789 141.662-192.91 239.905-351.988 240h-0.012c-0.032 0-0.070 0-0.108 0-45.66 0-89.401-8.212-129.829-23.239l2.577 0.839 69.12-69.12c17.31 7.266 37.427 11.497 58.53 11.52h0.009zM170.507 709.805l87.68-87.68c-52.74-41.228-93.759-95.111-118.776-157.164l-0.904-2.538c56.762-141.724 192.955-240.003 352.103-240.003 50.444 0 98.582 9.874 142.587 27.794l-2.53-0.911 13.44-13.44 93.867-93.44 40.533 40.533-567.467 567.467zM347.574 532.824l49.493-49.621c-1.581-6.225-2.511-13.381-2.56-20.748v-0.031c0-0.038 0-0.083 0-0.128 0-52.949 42.923-95.872 95.872-95.872 0.045 0 0.090 0 0.135 0h-0.007c7.397 0.049 14.554 0.979 21.401 2.692l-0.622-0.132 49.621-49.493c-20.76-10.643-45.292-16.881-71.281-16.881-87.776 0-158.933 71.157-158.933 158.933 0 25.989 6.238 50.521 17.298 72.18l-0.417-0.899zM485.387 557.784l100.821-100.821 0.64 5.12c0 0.038 0 0.083 0 0.128 0 52.949-42.923 95.872-95.872 95.872-0.045 0-0.090 0-0.135 0h0.007z" />
<glyph unicode="&#xe90d;" glyph-name="ic_invoice" d="M810.667 832h-597.333c-47.070-0.145-85.188-38.264-85.333-85.319v-597.347c0.145-47.070 38.264-85.188 85.319-85.333h597.347c47.070 0.145 85.188 38.264 85.333 85.319v597.347c-0.145 47.070-38.264 85.188-85.319 85.333h-0.014zM597.333 234.667h-298.667v85.333h298.667zM725.333 405.333h-426.667v85.333h426.667zM725.333 576h-426.667v85.333h426.667z" />
<glyph unicode="&#xe90e;" glyph-name="ic_language" d="M511.561 887.148c-242.346-0.25-438.709-196.768-438.709-439.148 0-242.535 196.613-439.148 439.148-439.148s439.148 196.613 439.148 439.148v0c0 242.535-196.613 439.148-439.148 439.148-0.154 0-0.309 0-0.463 0h0.024zM815.891 623.659h-129.549c-15.163 59.432-35.838 111.456-62.181 159.955l1.798-3.618c81.28-28.613 147.234-83.687 189.033-154.686l0.899-1.651zM512 797.562c35.016-49.905 63.588-107.638 82.711-169.52l1.166-4.382h-167.755c20.289 66.265 48.862 123.997 85.199 175.895l-1.322-1.992zM172.099 360.17c-7.251 26.349-11.418 56.602-11.418 87.83s4.167 61.481 11.974 90.237l-0.557-2.407h148.213c-3.566-26.188-5.714-56.648-5.927-87.568l-0.001-0.262c0.294-31.262 2.52-61.706 6.563-91.572l-0.415 3.743zM208.109 272.341h129.549c15.163-59.432 35.838-111.456 62.181-159.955l-1.798 3.618c-81.362 28.456-147.365 83.576-189.036 154.683l-0.896 1.654zM337.658 623.659h-129.549c42.618 72.797 108.701 127.926 187.692 155.587l2.459 0.75c-24.618-44.881-45.364-96.899-59.55-151.561l-1.052-4.776zM512 98.438c-35.015 49.905-63.588 107.638-82.711 169.52l-1.166 4.383h167.755c-20.289-66.265-48.862-123.997-85.199-175.895l1.322 1.992zM614.761 360.17h-205.521c-4.112 26.121-6.653 56.515-7.023 87.43l-0.004 0.399c0.354 31.297 2.896 61.691 7.481 91.411l-0.455-3.581h205.521c4.13-26.138 6.672-56.533 7.023-87.453l0.003-0.377c-0.374-31.315-2.915-61.709-7.482-91.434l0.456 3.604zM625.739 116.004c24.546 44.882 45.22 96.906 59.338 151.568l1.045 4.769h129.549c-42.698-72.649-108.652-127.724-187.464-155.577l-2.468-0.76zM703.469 360.17c3.629 26.124 5.854 56.568 6.145 87.474l0.003 0.356c-0.294 31.262-2.52 61.706-6.563 91.572l0.415-3.743h148.213c7.251-26.349 11.418-56.602 11.418-87.83s-4.167-61.481-11.974-90.237l0.557 2.407z" />
<glyph unicode="&#xe90f;" glyph-name="ic_list" d="M810.667 746.667v-597.333h-597.333v597.333h597.333zM857.6 832h-691.2c-21.208 0-38.4-17.192-38.4-38.4v0-691.2c1.427-20.608 17.792-36.973 38.271-38.393l0.129-0.007h691.2c19.917 2.93 35.47 18.483 38.37 38.154l0.030 0.246v691.2c-1.427 20.608-17.792 36.973-38.271 38.393l-0.129 0.007zM469.333 661.333h256v-85.333h-256zM469.333 490.667h256v-85.333h-256zM469.333 320h256v-85.333h-256zM298.667 661.333h85.333v-85.333h-85.333zM298.667 490.667h85.333v-85.333h-85.333zM298.667 320h85.333v-85.333h-85.333z" />
<glyph unicode="&#xe910;" glyph-name="ic_logfile" d="M128 533.333h469.333v-85.333h-469.333v85.333zM128 704h469.333v-85.333h-469.333v85.333zM128 362.667h298.667v-85.333h-298.667v85.333zM878.507 450.987l-181.333-180.907-90.453 90.453-60.16-60.16 150.613-151.040 241.493 241.493z" />
<glyph unicode="&#xe911;" glyph-name="ic_logout_over" d="M772.323 657.010l-60.16-60.16 110.080-110.507h-433.92v-85.333h433.92l-110.080-110.080 60.16-60.587 213.333 213.333zM217.656 742.344h341.333v85.333h-341.333c-47.070-0.145-85.188-38.264-85.333-85.319v-597.347c0.145-47.070 38.264-85.188 85.319-85.333h341.347v85.333h-341.333z" />
<glyph unicode="&#xe912;" glyph-name="ic_market" d="M704 448c58.91 0 106.667 47.756 106.667 106.667s-47.756 106.667-106.667 106.667c-58.91 0-106.667-47.756-106.667-106.667v0c0-0.102-0.001-0.222-0.001-0.342 0-58.722 47.603-106.325 106.325-106.325 0.12 0 0.24 0 0.361 0.001h-0.019zM384 490.667c70.692 0 128 57.308 128 128s-57.308 128-128 128c-70.692 0-128-57.308-128-128v0c-0.001-0.165-0.001-0.36-0.001-0.556 0-70.386 57.059-127.445 127.445-127.445 0.195 0 0.391 0 0.586 0.001h-0.030zM704 362.667c-78.080 0-234.667-39.253-234.667-117.333v-96h469.333v96c0 78.080-156.587 117.333-234.667 117.333zM384 405.333c-99.413 0-298.667-49.92-298.667-149.333v-106.667h298.667v96c2.521 66.183 42.924 122.347 100.046 147.629l1.074 0.424c-30.085 6.877-64.887 11.19-100.565 11.937l-0.555 0.009z" />
<glyph unicode="&#xe913;" glyph-name="ic_menu" d="M85.333 106.667h853.333v170.667h-853.333zM170.667 234.667h85.333v-85.333h-85.333zM85.333 789.333v-170.667h853.333v170.667zM256 661.333h-85.333v85.333h85.333zM85.333 362.667h853.333v170.667h-853.333zM170.667 490.667h85.333v-85.333h-85.333z" />
<glyph unicode="&#xe914;" glyph-name="ic_messages" d="M853.333 874.667h-682.667c-46.944-0.242-84.907-38.354-84.907-85.332 0 0 0-0.001 0-0.001v0l-0.427-768 170.667 170.667h597.333c47.070 0.145 85.188 38.264 85.333 85.319v512.014c-0.145 47.070-38.264 85.188-85.319 85.333h-0.014zM384 490.667h-85.333v85.333h85.333zM554.667 490.667h-85.333v85.333h85.333zM725.333 490.667h-85.333v85.333h85.333z" />
<glyph unicode="&#xe915;" glyph-name="ic_miniandbig" d="M891.67 771.511l-199.067-199.067 123.744-124.444h-301.29v301.29l123.744-123.744 199.766 199.067zM191.546 71.387l199.067 199.067 124.444-123.744v301.29h-301.29l123.744-123.744-199.067-199.766z" />
<glyph unicode="&#xe916;" glyph-name="ic_order" d="M810.667 789.333h-42.667v85.333h-85.333v-85.333h-341.333v85.333h-85.333v-85.333h-42.667c-46.898-0.024-84.908-38.048-84.908-84.949 0-0.135 0-0.27 0.001-0.405v0.021l-0.427-597.333c0-47.128 38.205-85.333 85.333-85.333v0h597.333c47.070 0.145 85.188 38.264 85.333 85.319v597.347c-0.145 47.070-38.264 85.188-85.319 85.333h-0.014zM810.667 106.667h-597.333v469.333h597.333zM298.667 490.667h213.333v-213.333h-213.333z" />
<glyph unicode="&#xe917;" glyph-name="ic_people" d="M597.333 448h170.667v-64h-170.667v64zM597.333 320h170.667v-64h-170.667v64zM853.333 661.333h-213.333v128c-0.145 47.070-38.264 85.188-85.319 85.333h-85.347c-47.070-0.145-85.188-38.264-85.333-85.319v-128.014h-213.333c-47.070-0.145-85.188-38.264-85.333-85.319v-469.347c0.145-47.070 38.264-85.188 85.319-85.333h682.681c47.070 0.145 85.188 38.264 85.333 85.319v469.347c-0.145 47.070-38.264 85.188-85.319 85.333h-0.014zM469.333 661.333v128h85.333v-213.333h-85.333zM853.333 106.667h-682.667v469.333h213.333c0.145-47.070 38.264-85.188 85.319-85.333h85.347c47.070 0.145 85.188 38.264 85.333 85.319v0.014h213.333zM448 384c0-35.346-28.654-64-64-64s-64 28.654-64 64c0 35.346 28.654 64 64 64s64-28.654 64-64zM472.747 269.653c-26.155 11.595-56.662 18.346-88.747 18.346s-62.592-6.751-90.18-18.909l1.433 0.564c-23.262-10.010-39.253-32.734-39.253-59.192 0-0.040 0-0.081 0-0.121v0.006-18.347h256v18.347c0 0.034 0 0.074 0 0.115 0 26.458-15.991 49.182-38.836 59.032l-0.417 0.16z" />
<glyph unicode="&#xe918;" glyph-name="ic_photo" d="M602.453 746.667l78.080-85.333h172.8v-512h-682.667v512h172.8l78.080 85.333h180.907zM640 832h-256l-78.080-85.333h-135.253c-47.070-0.145-85.188-38.264-85.333-85.319v-512.014c0.145-47.070 38.264-85.188 85.319-85.333h682.681c47.070 0.145 85.188 38.264 85.333 85.319v512.014c-0.145 47.070-38.264 85.188-85.319 85.333h-135.267zM512 533.333c70.692 0 128-57.308 128-128s-57.308-128-128-128c-70.692 0-128 57.308-128 128v0c0.218 70.605 57.395 127.782 127.979 128h0.021zM512 618.667c-117.821 0-213.333-95.513-213.333-213.333s95.513-213.333 213.333-213.333c117.821 0 213.333 95.513 213.333 213.333v0c0 117.821-95.513 213.333-213.333 213.333v0z" />
<glyph unicode="&#xe919;" glyph-name="ic_policy" d="M512 917.333l-384-170.667v-256c0-236.8 163.84-458.24 384-512 220.16 53.76 384 275.2 384 512v256zM618.667 422.827l38.4-165.547-145.067 87.467-145.067-87.467 38.4 165.12-128 110.507 168.96 14.507 65.707 155.733 65.707-155.307 168.96-14.507z" />
<glyph unicode="&#xe91a;" glyph-name="ic_search" d="M514.333 742.917c-48.75 8.543-98.699 2.598-143-15.75-88.601-36.695-158-124.27-158-236.5 0-140.88 115.12-256 256-256 112.23 0 199.805 69.399 236.5 158s23.851 199.649-55.5 279c-39.676 39.676-87.25 62.707-136 71.25zM498.833 659.75c32.131-5.472 63.65-20.9 91.167-48.417 55.034-55.034 61.804-126.11 37-186s-79.824-105.333-157.667-105.333c-94.762 0-170.667 75.905-170.667 170.667 0 77.842 45.443 132.863 105.333 157.667 29.945 12.402 62.702 16.888 94.833 11.417zM641.25 362.667c-0.365 0.011-0.795 0.018-1.226 0.018-11.792 0-22.468-4.784-30.19-12.517v0c-7.719-7.721-12.494-18.386-12.494-30.167s4.774-22.446 12.494-30.167l170.667-170.667c7.721-7.719 18.386-12.494 30.167-12.494s22.446 4.774 30.167 12.494v0c7.719 7.721 12.494 18.386 12.494 30.167s-4.774 22.446-12.494 30.167l-170.667 170.667c-7.43 7.44-17.591 12.151-28.852 12.498l-0.065 0.002z" />
<glyph unicode="&#xe91b;" glyph-name="ic_select" d="M868.565 733.676c-0.592 0.018-1.288 0.029-1.986 0.029-19.102 0-36.394-7.749-48.903-20.276l-384.305-384.305-227.046 227.181c-12.506 12.504-29.782 20.237-48.865 20.237s-36.358-7.734-48.865-20.237v0c-12.504-12.506-20.237-29.782-20.237-48.865s7.734-36.358 20.237-48.865l275.911-276.046c12.507-12.502 29.783-20.235 48.865-20.235s36.358 7.732 48.865 20.235l433.169 433.169c12.504 12.506 20.237 29.782 20.237 48.865s-7.734 36.358-20.237 48.865v0c-12.035 12.052-28.495 19.682-46.735 20.245l-0.105 0.003z" />
<glyph unicode="&#xe91c;" glyph-name="ic_setting" d="M816.64 407.893c1.63 11.785 2.561 25.402 2.561 39.237 0 0.306 0 0.611-0.001 0.917v-0.047c0.004 0.539 0.007 1.175 0.007 1.813 0 13.519-1.089 26.783-3.183 39.711l0.189-1.417 86.613 67.413c4.656 3.87 7.598 9.663 7.598 16.143 0 3.619-0.918 7.023-2.533 9.993l0.055-0.11-81.92 141.653c-3.64 6.379-10.398 10.609-18.145 10.609-2.521 0-4.937-0.448-7.173-1.269l0.144 0.046-101.973-40.96c-19.954 15.577-42.726 29.033-67.143 39.364l-1.977 0.743-15.36 108.373c-1.585 9.966-10.117 17.493-20.408 17.493-0.025 0-0.051 0-0.076 0h-163.836c-0.004 0-0.009 0-0.015 0-10.206 0-18.647-7.561-20.027-17.386l-0.012-0.107-15.36-108.373c-26.39-11.16-49.154-24.609-69.824-40.631l0.704 0.525-101.973 40.96c-2.15 0.844-4.641 1.333-7.245 1.333-7.712 0-14.423-4.29-17.875-10.613l-0.053-0.106-81.493-141.653c-1.847-2.917-2.943-6.469-2.943-10.277 0-6.459 3.155-12.182 8.007-15.711l0.056-0.039 86.613-67.413c-2.451-12.807-3.853-27.537-3.853-42.595 0-13.282 1.091-26.31 3.188-38.998l-0.188 1.38-86.613-67.413c-4.656-3.87-7.598-9.663-7.598-16.143 0-3.619 0.918-7.023 2.533-9.993l-0.055 0.11 81.92-141.653c3.64-6.379 10.398-10.609 18.145-10.609 2.521 0 4.937 0.448 7.173 1.269l-0.144-0.046 101.973 40.96c19.954-15.577 42.726-29.033 67.143-39.364l1.977-0.743 15.36-108.373c1.722-9.919 10.213-17.383 20.468-17.493h163.852c0.094-0.002 0.204-0.002 0.314-0.002 10.14 0 18.507 7.59 19.729 17.399l0.010 0.097 15.36 108.373c26.402 10.955 49.186 24.422 69.75 40.584l-0.63-0.478 101.973-40.96c2.15-0.844 4.641-1.333 7.245-1.333 7.712 0 14.423 4.29 17.875 10.613l0.053 0.106 81.92 141.653c1.777 2.907 2.829 6.424 2.829 10.187 0 6.462-3.102 12.199-7.899 15.803l-0.051 0.037zM512 294.4c-84.831 0-153.6 68.769-153.6 153.6s68.769 153.6 153.6 153.6c84.831 0 153.6-68.769 153.6-153.6v0c-0.266-84.724-68.876-153.334-153.575-153.6h-0.025z" />
<glyph unicode="&#xe91d;" glyph-name="ic_storage" d="M95.060 175.549h827.525v147.772h-827.525zM177.812 286.378h82.753v-73.886h-82.753zM95.060 766.638v-147.772h827.525v147.772zM260.565 655.809h-82.753v73.886h82.753zM95.060 397.207h827.525v147.772h-827.525zM177.812 508.037h82.753v-73.886h-82.753z" />
<glyph unicode="&#xe91e;" d="M512 885.073c220.698 0 399.61-178.911 399.61-399.61s-178.911-399.61-399.61-399.61c-220.698 0-399.61 178.911-399.61 399.61s178.911 399.61 399.61 399.61z" />
<glyph unicode="&#xe91f;" d="M493.268 373.073h37.463v37.463h-37.463zM512 672.78c-103.452 0-187.317-83.865-187.317-187.317s83.865-187.317 187.317-187.317c103.452 0 187.317 83.865 187.317 187.317v0c-0.036 103.438-83.879 187.281-187.314 187.317h-0.003zM512 335.61c-82.762 0-149.854 67.092-149.854 149.854s67.092 149.854 149.854 149.854c82.762 0 149.854-67.092 149.854-149.854v0c-0.114-82.716-67.137-149.74-149.843-149.854h-0.011zM512 597.854c-41.381 0-74.927-33.546-74.927-74.927v0h37.463c0 20.69 16.773 37.463 37.463 37.463s37.463-16.773 37.463-37.463v0c0-37.463-56.195-32.78-56.195-93.659h37.463c0 42.146 56.195 46.829 56.195 93.659 0 41.381-33.546 74.927-74.927 74.927v0z" />
<glyph unicode="&#xe920;" glyph-name="ic_ticketing" d="M597.333 874.667h-341.333c-46.944-0.242-84.907-38.354-84.907-85.332 0 0 0-0.001 0-0.001v0l-0.427-682.667c0 0 0-0.001 0-0.001 0-46.978 37.962-85.090 84.884-85.332h512.45c47.070 0.145 85.188 38.264 85.333 85.319v512.014zM682.667 277.333h-128v-128h-85.333v128h-128v85.333h128v128h85.333v-128h128zM554.667 576v234.667l234.667-234.667z" />
<glyph unicode="&#xe921;" glyph-name="ic_verified" d="M981.333 448l-104.107 119.040 14.507 157.44-154.027 34.987-80.64 136.533-145.067-62.293-145.067 62.293-80.64-136.107-154.027-34.56 14.507-157.867-104.107-119.467 104.107-119.040-14.507-157.867 154.027-34.987 80.64-136.107 145.067 62.72 145.067-62.293 80.64 136.107 154.027 34.987-14.507 157.44zM430.507 246.613l-162.133 162.56 63.147 63.147 98.987-99.413 249.6 250.453 63.147-63.147z" />
</font>
</defs>
</svg>
